<svg width="28" height="28" viewBox="0 0 28 28" fill="none" xmlns="http://www.w3.org/2000/svg">
<path d="M14 0.666687C21.364 0.666687 27.3333 6.63602 27.3333 14C27.3333 21.364 21.364 27.3334 14 27.3334C6.63596 27.3334 0.666626 21.364 0.666626 14C0.666626 6.63602 6.63596 0.666687 14 0.666687ZM14 7.33335C13.7583 7.33336 13.5248 7.42088 13.3427 7.57971C13.1606 7.73854 13.0422 7.95795 13.0093 8.19735L13 8.33335V13H8.33329C8.07993 13.0001 7.83604 13.0963 7.6509 13.2693C7.46577 13.4423 7.35319 13.6791 7.33592 13.9319C7.31866 14.1846 7.39798 14.4345 7.55787 14.6311C7.71776 14.8276 7.94629 14.9562 8.19729 14.9907L8.33329 15H13V19.6667C13 19.9201 13.0963 20.1639 13.2693 20.3491C13.4422 20.5342 13.679 20.6468 13.9318 20.6641C14.1846 20.6813 14.4345 20.602 14.631 20.4421C14.8276 20.2822 14.9561 20.0537 14.9906 19.8027L15 19.6667V15H19.6666C19.92 14.9999 20.1639 14.9037 20.349 14.7307C20.5341 14.5578 20.6467 14.321 20.664 14.0682C20.6813 13.8154 20.6019 13.5655 20.4421 13.369C20.2822 13.1724 20.0536 13.0439 19.8026 13.0094L19.6666 13H15V8.33335C15 8.06814 14.8946 7.81378 14.7071 7.62625C14.5195 7.43871 14.2652 7.33335 14 7.33335Z" fill="#E51A2B"/>
</svg>
