<svg width="32" height="22" viewBox="0 0 32 22" fill="none" xmlns="http://www.w3.org/2000/svg">
<path d="M16 0C13.3605 0.00827703 10.811 0.96027 8.812 2.684C7.28 4.004 6.17 5.724 5.884 7.45C2.532 8.19 0 11.11 0 14.636C0 18.732 3.416 22 7.562 22H25.374C29.004 22 32 19.14 32 15.546C32 12.274 29.516 9.608 26.332 9.158C25.846 3.998 21.38 0 16 0ZM20.708 13.708L16.708 17.708C16.6151 17.8011 16.5048 17.875 16.3833 17.9254C16.2618 17.9758 16.1315 18.0018 16 18.0018C15.8685 18.0018 15.7382 17.9758 15.6167 17.9254C15.4952 17.875 15.3849 17.8011 15.292 17.708L11.292 13.708C11.199 13.615 11.1253 13.5046 11.075 13.3832C11.0246 13.2617 10.9987 13.1315 10.9987 13C10.9987 12.8685 11.0246 12.7383 11.075 12.6168C11.1253 12.4954 11.199 12.385 11.292 12.292C11.4798 12.1042 11.7344 11.9987 12 11.9987C12.1315 11.9987 12.2617 12.0246 12.3832 12.075C12.5046 12.1253 12.615 12.199 12.708 12.292L15 14.586V7C15 6.73478 15.1054 6.48043 15.2929 6.29289C15.4804 6.10536 15.7348 6 16 6C16.2652 6 16.5196 6.10536 16.7071 6.29289C16.8946 6.48043 17 6.73478 17 7V14.586L19.292 12.292C19.4798 12.1042 19.7344 11.9987 20 11.9987C20.2656 11.9987 20.5202 12.1042 20.708 12.292C20.8958 12.4798 21.0013 12.7344 21.0013 13C21.0013 13.2656 20.8958 13.5202 20.708 13.708V13.708Z" fill="#E51A2B"/>
</svg>
